# xmcd
#
# Track frame offsets: 
#        150
#        10813
#        34952
#        47356
#        61582
#        74618
#        94227
#        107346
#        117137
#        122467
#        133360
#        152084
#
# Disc length: 2182 seconds
#
# Revision: 0
# Processed by: cddbd v1.5.2PL0 Copyright (c) Steve Scherf et al.
# Submitted via: ExactAudioCopyFreeDBPlugin 1.0
#
DISCID=9808840c
DTITLE=Various Artist - The Southern Journey Of Alan Lomax
DYEAR=2013
DGENRE=Blues
TTITLE0=Ed Young - Church, I Know We Got Another Building
TTITLE1=Floyd Batts and Prisoners - Dollar Mamie
TTITLE2=Preston Smith, Hobart Smith and Texas Gladden - Lonely Tombs
TTITLE3=Union Choir Of The Church Of God And Saints Of Christ - None B
TTITLE3=ut The Righteous
TTITLE4=Almeda Riddle - Rainbows Mid Life's Willows
TTITLE5=Mississippi Fred McDowell - Going Down That Gravel
TTITLE6=Spencer Moore - The Girl I Left Behind
TTITLE7=Vera Ward Hall - Riding In A Buggy - Candy Gal
TTITLE8=Wade Ward - Cumberland Gap
TTITLE9=Bessie Jones Group - Reg'lar, Reg'lar, Rolling Under
TTITLE10=I.D. Back - Poor Pilgrim Of Sorrow
TTITLE11=Miles and Bob Pratcher - I'm Gonna Live Anyow Until I Die
EXTD=
EXTT0=
EXTT1=
EXTT2=
EXTT3=
EXTT4=
EXTT5=
EXTT6=
EXTT7=
EXTT8=
EXTT9=
EXTT10=
EXTT11=
PLAYORDER=
